<?xml version="1.0" encoding="utf-8"?>
<!-- Generator: Adobe Illustrator 28.3.0, SVG Export Plug-In . SVG Version: 6.00 Build 0)  -->
<svg version="1.1" id="Layer_1" xmlns="http://www.w3.org/2000/svg" xmlns:xlink="http://www.w3.org/1999/xlink" x="0px" y="0px"
	 viewBox="0 0 24 24" style="enable-background:new 0 0 24 24;" xml:space="preserve">
<style type="text/css">
	.st0{fill:#5C98F2;}
</style>
<path class="st0" d="M11.2,1.1c0.2-0.3,0.5-0.5,0.8-0.5s0.7,0.2,0.8,0.5C14,3.5,16,7.6,16,7.6s4.6,0.6,7.2,1C23.7,8.7,24,9.1,24,9.5
	c0,0.2-0.1,0.5-0.3,0.6c-1.9,1.8-5.3,5-5.3,5s0.8,4.5,1.3,7.1c0.1,0.6-0.3,1.1-0.9,1.1c-0.1,0-0.3,0-0.4-0.1
	C16.1,22,12,19.9,12,19.9S7.9,22,5.6,23.3c-0.1,0.1-0.3,0.1-0.4,0.1c-0.6,0-1-0.5-0.9-1.1c0.5-2.6,1.3-7.1,1.3-7.1s-3.3-3.2-5.3-5
	C0.1,10,0,9.8,0,9.5c0-0.4,0.3-0.8,0.8-0.9c2.7-0.4,7.2-1,7.2-1S10,3.5,11.2,1.1z"/>
</svg>
