<?xml version="1.0" encoding="utf-8"?>
<!-- Generator: Adobe Illustrator 28.3.0, SVG Export Plug-In . SVG Version: 6.00 Build 0)  -->
<svg version="1.1" id="Layer_1" xmlns="http://www.w3.org/2000/svg" xmlns:xlink="http://www.w3.org/1999/xlink" x="0px" y="0px"
	 viewBox="0 0 800 800" style="enable-background:new 0 0 800 800;" xml:space="preserve">
<path d="M400,0C179.1,0,0,180.2,0,402.4C0,603.2,146.3,769.7,337.5,800V518.8H235.9V402.4h101.6v-88.7
	c0-100.9,59.7-156.6,151.1-156.6c43.8,0,89.6,7.8,89.6,7.8v99h-50.6c-49.6,0-65.1,31.1-65.1,62.9v75.5h110.9l-17.7,116.3h-93.1
	v281.2C653.7,769.8,800,603.3,800,402.4C800,180.2,620.9,0,400,0L400,0z"/>
</svg>
