<?xml version="1.0" encoding="utf-8"?>
<svg version="1.1" id="Layer_1" xmlns="http://www.w3.org/2000/svg" xmlns:xlink="http://www.w3.org/1999/xlink" x="0px" y="0px"
	 viewBox="0 0 496 512" style="enable-background:new 0 0 496 512;" xml:space="preserve">
<style type="text/css">
	.st0{fill:#FFFFFF;}
</style>
<g id="XMLID_00000149363106817033951640000000925515516483905200_">
	<g>
		<path class="st0" d="M448,256c0,8.7-0.7,17.2-1.8,25.5l-29.2-7.3c-5.8-1.5-10.8-5-14.1-10l-18-27c-5.4-8.1-5.4-18.6,0-26.6
			l19.6-29.4c2.3-3.5,5.5-6.3,9.2-8.1l13-6.5C440.2,193.6,448,223.9,448,256z"/>
		<path class="st0" d="M335.1,311c5.7,5.7,8.9,13.5,8.9,21.6c0,12.4-4.9,24.2-13.7,33c-3.9,3.9-8,7.9-11.3,11.3
			c-3,3-5.1,6.7-6.2,10.7c-1.5,5.7-2.7,11.4-4.8,16.9l-17.4,46.9c-13.8,3-28,4.7-42.6,4.7v-27.4c1.7-12.6-7.6-36.2-22.6-51.2
			c-6-6-9.4-14.2-9.4-22.7v-32c0-11.6-6.3-22.3-16.5-28c-14.4-8-34.8-19.1-48.8-26.1c-11.5-5.8-22.1-13.1-31.6-21.8l-0.8-0.7
			c-6.8-6.2-12.9-13.1-18.1-20.7c-9.4-13.8-24.7-36.4-34.6-51.1c19.1-42.4,52.5-77.1,94.1-97.7c5.3-2.6,11.3-5.9,16.9-7.6l13.3-4.5
			c2.8-1,5.7-1.8,8.6-2.5l10.4-2.5c5-1.4,10.6-1.4,15.8-2c5.1-0.6,10.3-1,15.6-1.2l28.3,28.3c6.2,6.2,6.2,16.4,0,22.6L264,112
			l-10.3,10.3c-3.1,3.1-3.1,8.2,0,11.3l4.7,4.7c3.1,3.1,3.1,8.2,0,11.3l-8,8c-1.5,1.5-3.5,2.3-5.7,2.3h-9c-2.1,0-4.1,0.8-5.6,2.3
			l-9.9,9.7c-2.5,2.4-3.1,6.2-1.6,9.3l15.6,31.2c2.7,5.3-1.2,11.6-7.2,11.6h-5.6c-1.9,0-3.8-0.7-5.2-2l-9.3-8.1
			c-4.3-3.7-10.2-4.9-15.5-3.1l-31.2,10.4c-4.9,1.6-8.2,6.2-8.2,11.3c0,4.5,2.6,8.7,6.6,10.7l11.1,5.5c9.4,4.7,19.8,7.2,30.3,7.2
			c10.5,0,22.6,27.3,32,32h66.8c8.5,0,16.6,3.4,22.6,9.4L335.1,311z"/>
		<path d="M248,8c137,0,248,111,248,248S385,504,248,504S0,393,0,256S111,8,248,8z M446.2,281.5c1.1-8.4,1.8-16.9,1.8-25.5
			c0-32.1-7.8-62.4-21.3-89.3l-13,6.5c-3.7,1.9-6.9,4.7-9.2,8.1l-19.6,29.4c-5.4,8.1-5.4,18.6,0,26.6l18,27c3.3,5,8.4,8.5,14.1,10
			L446.2,281.5z M344,332.6c0-8.1-3.2-15.9-8.9-21.6l-13.7-13.7c-6-6-14.1-9.4-22.6-9.4H232c-9.4-4.7-21.5-32-32-32
			c-10.5,0-20.9-2.5-30.3-7.2l-11.1-5.5c-4-2-6.6-6.2-6.6-10.7c0-5.1,3.3-9.7,8.2-11.3l31.2-10.4c5.4-1.8,11.3-0.6,15.5,3.1l9.3,8.1
			c1.5,1.3,3.3,2,5.2,2h5.6c5.9,0,9.8-6.3,7.2-11.6l-15.6-31.2c-1.5-3.1-0.9-6.9,1.6-9.3l9.9-9.7c1.5-1.5,3.5-2.3,5.6-2.3h9
			c2.1,0,4.2-0.8,5.7-2.3l8-8c3.1-3.1,3.1-8.2,0-11.3l-4.7-4.7c-3.1-3.1-3.1-8.2,0-11.3L264,112l4.7-4.7c6.2-6.2,6.2-16.4,0-22.6
			l-28.3-28.3c-5.2,0.2-10.4,0.6-15.6,1.2c-5.2,0.6-10.8,0.6-15.8,2l-10.4,2.5c-2.9,0.7-5.8,1.5-8.6,2.5l-13.3,4.5
			c-5.7,1.6-11.7,4.9-16.9,7.6c-41.6,20.6-75,55.2-94.1,97.7c9.9,14.7,25.2,37.4,34.6,51.1c5.2,7.6,11.2,14.6,18.1,20.7l0.8,0.7
			c9.6,8.6,20.2,16,31.6,21.8c14,7.1,34.4,18.2,48.8,26.1c10.2,5.6,16.5,16.3,16.5,28v32c0,8.5,3.4,16.7,9.4,22.7
			c15,15,24.3,38.6,22.6,51.2V456c14.6,0,28.9-1.7,42.6-4.7l17.4-46.9c2-5.5,3.3-11.2,4.8-16.9c1.1-4,3.2-7.7,6.2-10.7
			c3.3-3.3,7.4-7.4,11.3-11.3C339.1,356.9,344,345,344,332.6z"/>
	</g>
	<g>
	</g>
</g>
</svg>
