<?xml version="1.0" encoding="utf-8"?>
<!-- Generator: Adobe Illustrator 28.3.0, SVG Export Plug-In . SVG Version: 6.00 Build 0)  -->
<svg version="1.1" id="Layer_1" xmlns="http://www.w3.org/2000/svg" xmlns:xlink="http://www.w3.org/1999/xlink" x="0px" y="0px"
	 viewBox="0 0 512 512" style="enable-background:new 0 0 512 512;" xml:space="preserve">
<style type="text/css">
	.st0{fill:#5C98F2;}
</style>
<path class="st0" d="M470.6,425.4c12.5,12.5,12.5,32.7,0,45.2c-12.5,12.5-32.7,12.5-45.2,0l-13.3-12.4
	c-42.5,33.7-96.9,53.8-157,53.8c-58.3,0-112.7-20.1-156.1-53.8l-12.4,12.4c-12.5,12.5-32.8,12.5-45.3,0c-12.5-12.5-12.5-32.7,0-45.2
	l12.4-13.3C20.1,369.6,0,315.2,0,255.1C0,196.8,20.1,142.4,53.8,99L41.4,86.6c-12.5-12.5-12.5-32.8,0-45.3
	c12.5-12.5,32.8-12.5,45.3,0L99,53.8C142.4,20.1,196.8,0,255.1,0c60.1,0,114.5,20.1,157,53.8l13.3-12.4c12.5-12.5,32.7-12.5,45.2,0
	c12.5,12.5,12.5,32.8,0,45.3L458.2,99c33.7,43.4,53.8,97.8,53.8,156.1c0,60.1-20.1,114.5-53.8,157L470.6,425.4z M309.3,354.5
	c-15.9,8.6-34,13.5-54.2,13.5c-18.4,0-36.5-4.9-52.4-13.5l-57.9,58c31.3,22.4,69.7,35.5,110.3,35.5c42.4,0,80.8-13.1,112.1-35.5
	L309.3,354.5z M448,255.1c0-40.6-13.1-79-35.5-110.3l-58,57.9c8.6,15.9,13.5,34,13.5,53.3s-4.9,37.4-13.5,53.3l58,57.9
	C434.9,335.9,448,297.5,448,256V255.1z M255.1,63.1c-40.6,0-79,14-110.3,36.4l57.9,58c15.9-8.6,34-14.4,52.4-14.4
	c20.2,0,38.3,5.8,54.2,14.4l57.9-58C335.9,77.1,297.5,63.1,256,63.1H255.1z M157.5,309.3c-8.6-15.9-14.4-34-14.4-54.2
	c0-18.4,5.8-36.5,14.4-52.4l-58-57.9c-22.4,31.3-36.4,69.7-36.4,110.3c0,42.4,14,80.8,36.4,112.1L157.5,309.3z M255.1,207.1
	c-25.6,0-48,22.4-48,48c0,27.4,22.4,48,48,48c27.4,0,48.9-20.6,48.9-48C304,229.5,282.5,207.1,255.1,207.1z"/>
</svg>
