<?xml version="1.0" encoding="utf-8"?>
<!-- Generator: Adobe Illustrator 28.3.0, SVG Export Plug-In . SVG Version: 6.00 Build 0)  -->
<svg version="1.1" id="Layer_1" xmlns="http://www.w3.org/2000/svg" xmlns:xlink="http://www.w3.org/1999/xlink" x="0px" y="0px"
	 viewBox="0 0 500 500" style="enable-background:new 0 0 500 500;" xml:space="preserve">
<style type="text/css">
	.st0{fill-rule:evenodd;clip-rule:evenodd;fill:#5C98F2;}
</style>
<path class="st0" d="M247.1,500l151.8-1.6c12.2-2.1,28.1-6.9,34.9-12.5c9.6-7.8,15.8-20,15.8-33.8c0-12.7-5.2-24.2-13.6-32h3.5
	c22.3,0,40.4-19.1,40.4-42.6c0-23.5-18.1-42.6-40.4-42.6h20.2c22.3,0,40.4-19.1,40.4-42.6c0-23.5-18.1-42.6-40.4-42.6
	c22.3,0,40.4-19.1,40.4-42.6c0-23.5-18.1-42.6-40.4-42.6h-181c-5.5,0-10.5-1.8-14.7-5c-8.9-6.7-11.8-18.6-7.7-28.8l3.8-9.4
	c11-27.3,16.3-56.4,15.9-85.7c0-0.3,0-0.5,0-0.7c0-9.5-4.2-17.9-10.7-24.6c-14.6-15.1-39.8-13.5-52.8,3l0,0
	c-4.5,5.8-7.9,12.4-9.8,19.4v0c-2.4,25.3-7,50.4-13.9,75c-10.3,37.2-10.4,32.4-53.7,60.7c-15.3,10-24.5,26.8-24.5,44.8l0,146.6
	c0,24.4,10.4,47.6,28.8,64.2l68.4,61.7C218,495,232.2,500.2,247.1,500z"/>
<path class="st0" d="M79.9,500h-62C8,500,0,492,0,482.1V182.5c0-9.9,8-17.9,17.9-17.9h62c9.9,0,17.9,8,17.9,17.9v299.6
	C97.8,492,89.8,500,79.9,500z"/>
</svg>
