<svg xmlns="http://www.w3.org/2000/svg" xmlns:xlink="http://www.w3.org/1999/xlink" version="1.1" id="Capa_1" x="0px" y="0px" style="enable-background:new 0 0 848 594;" xml:space="preserve" viewBox="126.9 0.1 594 594">
<path d="M423.9,0.1c-164,0-297,133-297,297s133,297,297,297s297-133,297-297S588,0.1,423.9,0.1z M572.9,227.3v40.3  c-18.9,0-37.4-3.7-54.8-11c-11.1-4.8-21.6-10.8-31.1-18.1l0.2,123.8c-0.1,27.8-11.1,54.1-31.1,73.8c-16.2,16-36.8,26.2-59.2,29.6  c-5.2,0.8-10.6,1.2-16,1.2c-23.9,0-46.5-7.8-65.1-22c-3.5-2.7-6.8-5.6-10-8.7c-21.6-21.3-32.8-50.4-30.9-80.9  c1.4-23.2,10.7-45.4,26.2-62.6c20.5-23,49.2-35.7,79.8-35.7c5.3,0,10.7,0.3,16,1.2v14.8v41.4c-5-1.6-10.3-2.6-15.8-2.6  c-28,0-50.7,22.9-50.2,50.8c0.2,18,10.1,33.6,24.5,42.2c6.8,4.1,14.6,6.6,23,7.1c6.5,0.3,12.8-0.6,18.6-2.4  c20-6.6,34.5-25.4,34.5-47.6l0.1-82.8V127.4h55.3c0,5.5,0.6,10.8,1.6,16c4.2,21,16,39.2,32.5,51.6c14.4,10.8,32.3,17.3,51.6,17.3  h0.1V227.3L572.9,227.3z"/>
</svg>